<svg id="Layer_1" data-name="Layer 1" xmlns="http://www.w3.org/2000/svg" xmlns:xlink="http://www.w3.org/1999/xlink" viewBox="0 0 244.43 80.48"><defs><style>.cls-1{fill:url(#radial-gradient);}.cls-2{fill:gray;}</style><radialGradient id="radial-gradient" cx="208.51" cy="40.05" r="54.81" gradientUnits="userSpaceOnUse"><stop offset="0" stop-color="#00b6f8"/><stop offset="1" stop-color="#0169ec"/></radialGradient></defs><path class="cls-1" d="M235.6,0l-9.77,13.07L213.37,41.44h-9.72L191.18,13.07,181.42,0h-8.83V80.09h8.83l25.27-33.31,1.82,1.82,1.82-1.82L235.6,80.09h8.83V0ZM180.93,66.9V13.54L201.52,40Zm55.15,0L215.5,40l20.58-26.49Z"/><path d="M7.31,52.52H25.52V42h2.21a6.9,6.9,0,0,0,5.11-2.18c.22-.29.5-.62.84-1a9.82,9.82,0,0,0,.81,1A7,7,0,0,0,39.62,42h2.09a6.87,6.87,0,0,0,5.14-2.18A7,7,0,0,0,49,34.59V16.87H42V34c0,2.11-.79,3.17-2.37,3.17S37.26,36.08,37.26,34V16.87h-7V34.12c0,2-.79,3-2.36,3s-2.4-1-2.4-3.14V16.87h-7V47.7H9.39C7.79,47.7,7,46.65,7,44.55V21.7H0V45.17a7,7,0,0,0,2.12,5.17A7.06,7.06,0,0,0,7.31,52.52Z"/><path d="M64.68,50.34a7,7,0,0,0,2.15-5.17V16.87h-7V44.55q0,3.15-2.34,3.15h-2.3v4.82h4.33A7,7,0,0,0,64.68,50.34Z"/><path d="M92,16.87H80.34a6.83,6.83,0,0,0-5.13,2.18,7,7,0,0,0-2.15,5.2V34.59a7.06,7.06,0,0,0,2.15,5.2A6.76,6.76,0,0,0,80.28,42H85v2.58a5.14,5.14,0,0,1-.12,1.15,2.59,2.59,0,0,1-.44,1,2,2,0,0,1-1.77,1H80v4.82h4.7A7.39,7.39,0,0,0,92,45.14ZM85,37.14H83.36Q80,37.14,80,34.06V24.84c0-2.09,1.22-3.14,3.64-3.14H85Z"/><polygon points="120.69 0.22 111.26 9.65 111.26 14.16 125.2 0.22 120.69 0.22"/><path d="M155.25,16.87h-4.33a6.9,6.9,0,0,0-5.11,2.18,7.07,7.07,0,0,0-2.14,5.17v9.87a3.09,3.09,0,0,1-.78,2.4,3.68,3.68,0,0,1-2.34.65h-.21a4,4,0,0,1-2.56-.65,2.73,2.73,0,0,1-.78-2.06V24.25A7.12,7.12,0,0,0,134.86,19a7,7,0,0,0-5.14-2.15h-9.43L137.16,0h-8.62L111.76,16.78V21.7h15.78c1.66,0,2.49,1,2.49,3.11v9.12q0,3.21-2.49,3.21H108.3a3.68,3.68,0,0,1-2.34-.65,3.17,3.17,0,0,1-.77-2.43V0h-7V34.62A7.39,7.39,0,0,0,105.44,42h24.28A7.25,7.25,0,0,0,134.54,40a6.92,6.92,0,0,0,4.8,1.93h1.93a7.41,7.41,0,0,0,2.93-.59,6.73,6.73,0,0,0,.65,1.32,7.39,7.39,0,0,0,1,1.23,6.86,6.86,0,0,0,5.1,2.18h4.3a7.39,7.39,0,0,0,7.28-7.41V24.22a7.39,7.39,0,0,0-7.28-7.35Zm.31,21.27c0,2.11-.83,3.17-2.49,3.17s-2.43-1.06-2.43-3.17V24.84c0-2.09.81-3.14,2.43-3.14s2.49,1.05,2.49,3.14Z"/><polygon class="cls-2" points="7.26 69.24 3.23 62.75 0 62.75 0 80.09 3.28 80.09 3.28 68.14 6.34 73.12 8.16 73.12 11.18 68.17 11.18 80.09 14.49 80.09 14.49 62.75 11.26 62.75 7.26 69.24"/><polygon class="cls-2" points="17.8 80.09 29.7 80.09 29.7 77.27 21.08 77.27 21.08 72.76 26.91 72.76 26.91 69.94 21.08 69.94 21.08 65.6 29.7 65.6 29.7 62.75 17.8 62.75 17.8 80.09"/><path class="cls-2" d="M41.62,63.21a8.41,8.41,0,0,0-3.3-.61,7.17,7.17,0,0,0-3.33.74,5.32,5.32,0,0,0-2.22,2.11A6.19,6.19,0,0,0,32,68.6v6.59a4.73,4.73,0,0,0,.8,2.67A5.51,5.51,0,0,0,35,79.77a8.22,8.22,0,0,0,6.66,0,5.12,5.12,0,0,0,2.2-2,5.43,5.43,0,0,0,.79-3V71H38.17V73.6h3.28v1.77a2,2,0,0,1-.76,1.77,3.87,3.87,0,0,1-2.22.52,3.18,3.18,0,0,1-2.3-.86,3,3,0,0,1-.9-2.22V68.52a3,3,0,0,1,.84-2.25,3,3,0,0,1,2.21-.85,3.64,3.64,0,0,1,2.23.62,1.93,1.93,0,0,1,.82,1.64v.9h3.29V67.32a4,4,0,0,0-.8-2.43A5.5,5.5,0,0,0,41.62,63.21Z"/><path class="cls-2" d="M51.27,62.75,45.73,80.09h3.54l1-3.43h6.1l1.06,3.43H61L55.43,62.75Zm-.2,11.37,2.26-7.57,2.3,7.57Z"/><polygon class="cls-2" points="67.15 75.73 63.59 62.75 60.07 62.75 65.36 80.09 68.79 80.09 74.13 62.75 70.67 62.75 67.15 75.73"/><path class="cls-2" d="M85.36,63.37a7.94,7.94,0,0,0-6.82,0,5.86,5.86,0,0,0-2.31,2.06,5.14,5.14,0,0,0-.82,2.81v6.65a5.05,5.05,0,0,0,.82,2.79,5.74,5.74,0,0,0,2.31,2,8,8,0,0,0,6.82,0,5.74,5.74,0,0,0,2.31-2,5.05,5.05,0,0,0,.82-2.79V68.24a5.14,5.14,0,0,0-.82-2.81A5.86,5.86,0,0,0,85.36,63.37ZM85,75a2.39,2.39,0,0,1-.35,1.19,2.86,2.86,0,0,1-1.05,1,3.65,3.65,0,0,1-3.36,0,3.06,3.06,0,0,1-1.08-1A2.35,2.35,0,0,1,78.82,75V67.91a2.14,2.14,0,0,1,.37-1.14,2.82,2.82,0,0,1,1.08-1A3.42,3.42,0,0,1,82,65.42a3.38,3.38,0,0,1,1.69.39,2.56,2.56,0,0,1,1,1A2.19,2.19,0,0,1,85,67.91Z"/><path class="cls-2" d="M102.51,71.08a5.15,5.15,0,0,0,.88-3,5.7,5.7,0,0,0-.66-2.79,4.54,4.54,0,0,0-1.9-1.86A5.87,5.87,0,0,0,98,62.75H90.8V80.09h3.28V73.24h2.83L100,80.09h3.52l-3.44-7.21A4.78,4.78,0,0,0,102.51,71.08Zm-3.12-1.16a2.61,2.61,0,0,1-1.89.68H94.08v-5H97.5a2.59,2.59,0,0,1,1.89.71,2.45,2.45,0,0,1,.72,1.83A2.36,2.36,0,0,1,99.39,69.92Z"/><path class="cls-2" d="M115.23,71.42a26.55,26.55,0,0,0-2.73-1.15c-1-.36-1.78-.67-2.32-.92A3.41,3.41,0,0,1,109,68.5a1.86,1.86,0,0,1,.29-2.58,3.19,3.19,0,0,1,1.91-.5,3.69,3.69,0,0,1,2.41.74,2.3,2.3,0,0,1,.9,1.83v.48h3.26v-.64a4.82,4.82,0,0,0-.82-2.76,5.33,5.33,0,0,0-2.29-1.84,8,8,0,0,0-3.33-.66A6.73,6.73,0,0,0,107,63.88a4.27,4.27,0,0,0-1.65,3.54,3.9,3.9,0,0,0,.79,2.53,5.5,5.5,0,0,0,1.8,1.52c.69.36,1.66.8,2.93,1.31,1,.43,1.77.75,2.23,1a3.58,3.58,0,0,1,1.09.77,1.51,1.51,0,0,1,.4,1.07,1.81,1.81,0,0,1-.68,1.45,3.07,3.07,0,0,1-2,.58,4.3,4.3,0,0,1-2.57-.69,2.1,2.1,0,0,1-1-1.75v-.64h-3.23v.8a4.69,4.69,0,0,0,.8,2.72,5.08,5.08,0,0,0,2.26,1.78,8.61,8.61,0,0,0,3.43.63,7.26,7.26,0,0,0,4.57-1.34,4.37,4.37,0,0,0,1.72-3.64,4,4,0,0,0-.8-2.54A5.56,5.56,0,0,0,115.23,71.42Z"/><polygon class="cls-2" points="120.02 80.09 131.92 80.09 131.92 77.27 123.3 77.27 123.3 72.76 129.12 72.76 129.12 69.94 123.3 69.94 123.3 65.6 131.92 65.6 131.92 62.75 120.02 62.75 120.02 80.09"/><rect class="cls-2" x="143" y="62.75" width="3.28" height="17.34"/><path class="cls-2" d="M161.48,71.08a5.15,5.15,0,0,0,.88-3,5.7,5.7,0,0,0-.66-2.79,4.54,4.54,0,0,0-1.9-1.86,5.87,5.87,0,0,0-2.82-.66h-7.21V80.09h3.28V73.24h2.82L159,80.09h3.52L159,72.88A4.78,4.78,0,0,0,161.48,71.08Zm-3.12-1.16a2.62,2.62,0,0,1-1.9.68h-3.41v-5h3.41a2.6,2.6,0,0,1,1.9.71,2.45,2.45,0,0,1,.72,1.83A2.36,2.36,0,0,1,158.36,69.92Z"/><rect class="cls-2" x="135.2" y="76.27" width="3.95" height="3.95"/></svg>